<svg id="Capa_1" data-name="Capa 1" xmlns="http://www.w3.org/2000/svg" viewBox="0 0 144 144"><defs><style>.cls-1{fill:#fff;stroke:#000;stroke-miterlimit:10;stroke-width:2px;}.cls-2{fill:none;}</style></defs><circle class="cls-1" cx="72.36" cy="72.22" r="69"/><path d="M79.78,57H54l9.56-9.56-4.24-4.24L46.6,56h0L42.36,60.2l4.24,4.24h0L59.33,77.17l4.24-4.24L53.84,63.2h26.1a16.5,16.5,0,0,1,16.5,16.5h0a16.5,16.5,0,0,1-16.5,16.5H60.36l6,6H79.78a22.58,22.58,0,0,0,22.58-22.58h0A22.58,22.58,0,0,0,79.78,57Z"/><rect class="cls-2" x="36.36" y="36.21" width="72" height="72"/><rect class="cls-2" x="0.36" y="0.21" width="144" height="144"/></svg>