<svg id="Capa_1" data-name="Capa 1" xmlns="http://www.w3.org/2000/svg" viewBox="0 0 72 72"><defs><style>.cls-1{fill:none;}</style></defs><g id="Grupo_3826" data-name="Grupo 3826"><g id="Grupo_3159" data-name="Grupo 3159"><g id="Capa_91" data-name="Capa 91"><path id="Trazado_946" data-name="Trazado 946" d="M65.77,13.73a22.79,22.79,0,0,1-6.22,2.08A14.41,14.41,0,0,0,64.18,7.6a18.87,18.87,0,0,1-8,3.61,13.33,13.33,0,0,0-23.13,8.91c0,.3,0,.6,0,.9h0s0,1.36-.15,3.55c-13.38-.78-22.88-14.9-22.88-14.9S4,21.92,14.15,30a15.11,15.11,0,0,1-5.86-2.56A14.67,14.67,0,0,0,19.57,43.26a28.27,28.27,0,0,1-7.11-.39A13.24,13.24,0,0,0,24.23,53.25a1.66,1.66,0,0,1-.13.14A22.42,22.42,0,0,1,5.77,59.47c18.88,13.79,39.08,7.32,49.6-10.29C62.09,37.93,60,24.42,59.72,21.6h0A25.28,25.28,0,0,0,65.77,13.73Z"/></g><g id="Capa_79" data-name="Capa 79"><rect id="Rectángulo_2927" data-name="Rectángulo 2927" class="cls-1" x="-0.07" y="-0.07" width="72" height="72"/></g></g></g></svg>