<svg id="Capa_1" data-name="Capa 1" xmlns="http://www.w3.org/2000/svg" viewBox="0 0 72 72"><defs><style>.cls-1{fill:#fff;}.cls-2{fill:none;}</style></defs><g id="Grupo_3828" data-name="Grupo 3828"><g id="Grupo_3161" data-name="Grupo 3161"><g id="Capa_92" data-name="Capa 92"><path id="Trazado_948" data-name="Trazado 948" class="cls-1" d="M49.22,7.82H22.83A15.94,15.94,0,0,0,6.89,23.75h0V50.14A15.94,15.94,0,0,0,22.83,66.08H49.22A15.94,15.94,0,0,0,65.15,50.14h0V23.75A15.93,15.93,0,0,0,49.22,7.82Zm10.11,41.3A11.14,11.14,0,0,1,48.19,60.25H23.86A11.12,11.12,0,0,1,12.71,49.13h0V24.78A11.13,11.13,0,0,1,23.84,13.64H48.19A11.14,11.14,0,0,1,59.33,24.78h0Z"/><path id="Trazado_949" data-name="Trazado 949" class="cls-1" d="M36,22.63A14.32,14.32,0,1,0,50.33,37,14.31,14.31,0,0,0,36,22.63Zm0,23.65A9.33,9.33,0,1,1,45.35,37,9.33,9.33,0,0,1,36,46.28Z"/><circle id="Elipse_239" data-name="Elipse 239" class="cls-1" cx="50.65" cy="21.24" r="3.33"/></g><g id="Capa_79-2" data-name="Capa 79-2"><rect id="Rectángulo_2929" data-name="Rectángulo 2929" class="cls-2" x="0.43" y="0.43" width="71.57" height="71.57"/></g></g></g></svg>