<svg id="Capa_1" data-name="Capa 1" xmlns="http://www.w3.org/2000/svg" viewBox="0 0 72 72"><defs><style>.cls-1{fill:#fff;}.cls-2{fill:none;}</style></defs><g id="Grupo_3830" data-name="Grupo 3830"><g id="Grupo_3163" data-name="Grupo 3163"><g id="Capa_93" data-name="Capa 93"><path id="Trazado_951" data-name="Trazado 951" class="cls-1" d="M36.12,2.79h0A32.91,32.91,0,1,0,69,35.69h0A32.92,32.92,0,0,0,36.12,2.78ZM51.2,50.23a2,2,0,0,1-2.82.68h0c-7.73-4.72-17.45-5.78-28.91-3.17a2.05,2.05,0,0,1-.9-4c12.54-2.86,23.29-1.63,32,3.67A2,2,0,0,1,51.2,50.23Zm4-9h0a2.57,2.57,0,0,1-3.53.85h0A43.14,43.14,0,0,0,18.92,38.3a2.57,2.57,0,0,1-1.5-4.91,48,48,0,0,1,37,4.37,2.57,2.57,0,0,1,.86,3.52Zm.35-9.33h0c-10.61-6.3-28.11-6.87-38.23-3.8a3.08,3.08,0,1,1-1.8-5.89c11.65-3.52,31-2.84,43.17,4.41A3.08,3.08,0,1,1,55.58,32Z"/></g><g id="Capa_79-4" data-name="Capa 79-4"><rect id="Rectángulo_2931" data-name="Rectángulo 2931" class="cls-2" x="0.21" y="-0.22" width="72" height="72"/></g></g></g></svg>