<svg id="Capa_1" data-name="Capa 1" xmlns="http://www.w3.org/2000/svg" viewBox="0 0 960 960"><defs><style>.cls-1{fill:#fff;}.cls-2{opacity:0.5;}.cls-3,.cls-4{fill:none;}.cls-3{stroke:#000;stroke-miterlimit:10;}.cls-4{stroke:#dedede;stroke-width:2px;}</style></defs><rect class="cls-1" x="0.5" y="-0.5" width="960" height="960"/><g id="Grupo_1262" data-name="Grupo 1262" class="cls-2"><line id="Línea_1103" data-name="Línea 1103" class="cls-3" x1="128.88" y1="520.02" x2="829.83" y2="520.02"/><path id="Trazado_1955" data-name="Trazado 1955" class="cls-3" d="M200.56,787.56l592.06-591"/><line id="Línea_1105" data-name="Línea 1105" class="cls-3" x1="213.38" y1="808.29" x2="810.95" y2="210.3"/><line id="Línea_1106" data-name="Línea 1106" class="cls-3" x1="756.38" y1="788.29" x2="166.04" y2="196.61"/><line id="Línea_1107" data-name="Línea 1107" class="cls-3" x1="745.38" y1="808.29" x2="148.11" y2="210.3"/><line id="Línea_1108" data-name="Línea 1108" class="cls-3" x1="514.95" y1="819.26" x2="365.42" y2="118.31"/><line id="Línea_1109" data-name="Línea 1109" class="cls-3" x1="444.44" y1="819.26" x2="593.97" y2="118.31"/><g id="Grupo_1258" data-name="Grupo 1258"><line id="Línea_1110" data-name="Línea 1110" class="cls-3" x1="479.36" y1="118.31" x2="479.36" y2="819.26"/><line id="Línea_1111" data-name="Línea 1111" class="cls-3" x1="829.83" y1="468.78" x2="128.88" y2="472.87"/><line id="Línea_1112" data-name="Línea 1112" class="cls-3" x1="829.83" y1="328.59" x2="128.88" y2="328.59"/><line id="Línea_1113" data-name="Línea 1113" class="cls-3" x1="829.83" y1="608.97" x2="128.88" y2="608.97"/><line id="Línea_1114" data-name="Línea 1114" class="cls-3" x1="619.55" y1="819.26" x2="619.55" y2="118.31"/><line id="Línea_1115" data-name="Línea 1115" class="cls-3" x1="339.16" y1="819.26" x2="339.16" y2="118.31"/><line id="Línea_1116" data-name="Línea 1116" class="cls-3" x1="774.26" y1="173.88" x2="184.45" y2="763.69"/><line id="Línea_1117" data-name="Línea 1117" class="cls-3" x1="184.45" y1="173.88" x2="774.26" y2="763.69"/><circle id="Elipse_13" data-name="Elipse 13" class="cls-3" cx="479.37" cy="468.78" r="175.24"/><circle id="Elipse_14" data-name="Elipse 14" class="cls-3" cx="479.36" cy="468.79" r="350.48"/><path id="Trazado_1900" data-name="Trazado 1900" class="cls-3" d="M724.69,153.36H234a70.07,70.07,0,0,0-70.09,70V714.12a70.08,70.08,0,0,0,70,70.1H724.69a70.08,70.08,0,0,0,70.09-70.06V223.45a70.07,70.07,0,0,0-70.06-70.09Z"/><path id="Trazado_1901" data-name="Trazado 1901" class="cls-3" d="M759.74,188.4H199a70.1,70.1,0,0,0-70.1,70.1V679.07a70.1,70.1,0,0,0,70.1,70.1H759.74a70.11,70.11,0,0,0,70.1-70.1V258.5A70.11,70.11,0,0,0,759.74,188.4Z"/><rect id="Rectángulo_1411" data-name="Rectángulo 1411" class="cls-3" x="198.98" y="118.31" width="560.76" height="700.95" rx="43.26"/><rect id="Rectángulo_1412" data-name="Rectángulo 1412" class="cls-3" x="198.98" y="188.4" width="560.76" height="560.76"/></g><path id="Trazado_1902" data-name="Trazado 1902" class="cls-3" d="M334.44,819.26A259.91,259.91,0,0,1,219.23,603.18C219.23,459.49,335.69,343,479.35,343S739.47,459.49,739.47,603.18A259.9,259.9,0,0,1,624.25,819.26"/><ellipse id="Elipse_15" data-name="Elipse 15" class="cls-3" cx="479.35" cy="606.57" rx="193.42" ry="193.45"/></g><path id="Trazado_1903" data-name="Trazado 1903" class="cls-4" d="M608.31,377.25l-20-10.23a258.6,258.6,0,0,0-97.59-23.22c-2.18-.1-4.38-.13-6.57-.18-1.38,0-2.74-.11-4.12-.11l-.67,0-.66,0c-1.38,0-2.75.09-4.12.11-2.19.05-4.39.08-6.57.18A258.65,258.65,0,0,0,370.38,367l-20,10.23c-.7.41-1.43.79-2.12,1.27l51.32,51.32c5.2-2.47,10-4.72,10.8-5a190.74,190.74,0,0,1,29.27-8.51q2.61-.56,5.24-1c1.8-.32,3.61-.62,5.43-.88,1.59-.24,3.18-.45,4.78-.64,1.43-.18,2.85-.35,4.29-.5q9.84-.94,20-1t20,1c1.43.14,2.85.32,4.27.49,1.6.2,3.21.41,4.81.64q2.72.4,5.41.88c1.76.32,3.51.66,5.25,1a189.94,189.94,0,0,1,29.27,8.51c.82.32,5.6,2.56,10.8,5l51.32-51.32C609.73,378,609,377.66,608.31,377.25Z"/><path id="Trazado_1904" data-name="Trazado 1904" class="cls-4" d="M713,487.34c-1.93-3.8-3.91-7.6-6.05-11.3a260.5,260.5,0,0,0-77.14-85.12l-49.6,49.61a191.82,191.82,0,0,1,35.41,27.85c1.5,1.5,2.94,3,4.39,4.56,1,1,1.88,2,2.79,3.1a165.55,165.55,0,0,1,28,43.61h74.52A172.11,172.11,0,0,0,713,487.34Z"/><path id="Trazado_1905" data-name="Trazado 1905" class="cls-4" d="M294.49,419.79A261.1,261.1,0,0,0,251.74,476c-2.14,3.7-4.13,7.5-6.05,11.3a168.18,168.18,0,0,0-12.22,32.3h74.46a163.79,163.79,0,0,1,28-43.6c.91-1.07,1.82-2.09,2.78-3.11,1.45-1.56,2.89-3.05,4.45-4.55a191.38,191.38,0,0,1,35.35-27.86l-49.6-49.61A260,260,0,0,0,294.49,419.79Z"/><path id="Trazado_1906" data-name="Trazado 1906" class="cls-4" d="M479.52,436.86a31,31,0,0,0-30.95,30.95h0a31,31,0,0,0,30.95,30.95h0a31,31,0,0,0,31-30.95h0a31,31,0,0,0-31-30.95Z"/><path id="Trazado_1907" data-name="Trazado 1907" d="M479.61,653l28.45-133.37H451.17Z"/><path id="Trazado_1903-2" data-name="Trazado 1903-2" d="M608.31,377.25l-20-10.23a258,258,0,0,0-97.48-23.22c-2.17-.1-4.36-.13-6.55-.18-1.38,0-2.74-.11-4.12-.11l-.66,0-.67,0c-1.38,0-2.74.09-4.11.11-2.19.05-4.38.08-6.56.18A258,258,0,0,0,370.7,367l-20,10.23c-.7.41-1.42.79-2.12,1.27l51.26,51.32c5.19-2.47,10-4.72,10.78-5a190.7,190.7,0,0,1,29.24-8.51q2.59-.56,5.24-1c1.8-.32,3.6-.61,5.42-.88,1.58-.24,3.17-.45,4.77-.64,1.43-.18,2.85-.35,4.28-.5q9.84-.94,19.94-1t19.94,1c1.42.14,2.84.32,4.25.49,1.61.2,3.21.41,4.81.64,1.8.27,3.61.56,5.4.88s3.5.66,5.25,1a189.35,189.35,0,0,1,29.22,8.51c.83.32,5.6,2.56,10.79,5l51.26-51.32C609.73,378,609,377.66,608.31,377.25Z"/><path id="Trazado_1904-2" data-name="Trazado 1904-2" d="M713,487.41c-1.93-3.79-3.91-7.59-6.06-11.28a259.95,259.95,0,0,0-77.14-84.9l-49.6,49.48a191.41,191.41,0,0,1,35.41,27.79c1.5,1.5,2.95,3,4.39,4.54,1,1,1.88,2,2.79,3.1a164.8,164.8,0,0,1,28,43.5h74.52A171.76,171.76,0,0,0,713,487.41Z"/><path id="Trazado_1905-2" data-name="Trazado 1905-2" d="M294.49,419.87a261.84,261.84,0,0,0-42.75,56.39c-2.14,3.71-4.13,7.52-6.05,11.34A168.66,168.66,0,0,0,233.47,520h74.46a164.43,164.43,0,0,1,28-43.72c.91-1.07,1.82-2.09,2.79-3.11,1.44-1.56,2.88-3.06,4.44-4.57a192,192,0,0,1,35.36-27.93l-49.61-49.73A260.54,260.54,0,0,0,294.49,419.87Z"/><path id="Trazado_1906-2" data-name="Trazado 1906-2" d="M479.52,436.86a30.95,30.95,0,1,0,31,30.95h0a31,31,0,0,0-31-30.95Z"/><path id="Trazado_1907-2" data-name="Trazado 1907-2" d="M479.61,653l28.45-133.35H451.17Z"/></svg>