<svg id="Capa_1" data-name="Capa 1" xmlns="http://www.w3.org/2000/svg" viewBox="0 0 72 72"><defs><style>.cls-1{fill:none;}</style></defs><g id="Grupo_3829" data-name="Grupo 3829"><g id="Grupo_3162" data-name="Grupo 3162"><g id="Capa_92-2" data-name="Capa 92-2"><path id="Trazado_950" data-name="Trazado 950" d="M67.71,36A32.27,32.27,0,0,1,41.12,68.17l0-22.83,7.42,0,1.43-9.45H41.16l-.07-6.48a4.68,4.68,0,0,1,4.45-4.68c1.16-.09,4.65,0,4.65,0V16.66l-8.34-.78A11.48,11.48,0,0,0,31.22,28.14v7.78H23.29v9.45h7.93V68.13A32.28,32.28,0,0,1,4.71,36a31.52,31.52,0,0,1,63-2.13q0,1.06,0,2.13Z"/></g><g id="Capa_79-3" data-name="Capa 79-3"><rect id="Rectángulo_2930" data-name="Rectángulo 2930" class="cls-1" x="0.21" y="-0.22" width="72" height="72"/></g></g></g></svg>