<svg id="Capa_1" data-name="Capa 1" xmlns="http://www.w3.org/2000/svg" viewBox="0 0 72 72"><defs><style>.cls-1{fill:none;}</style></defs><g id="Grupo_3160" data-name="Grupo 3160"><g id="Capa_91" data-name="Capa 91"><path id="Trazado_947" data-name="Trazado 947" d="M53.19,7.62H18.64a12.3,12.3,0,0,0-12.3,12.3V54.45a12.3,12.3,0,0,0,12.3,12.3H53.19a12.3,12.3,0,0,0,12.3-12.3V19.91A12.31,12.31,0,0,0,53.19,7.62ZM26.06,54.4H18.68V27.34h7.38ZM22.42,24.1a4.25,4.25,0,1,1,4.25-4.25,4.25,4.25,0,0,1-4.25,4.25h0Zm33.2,30.35H48.14V40.07s.2-5.58-4.84-5.45a5.21,5.21,0,0,0-4.89,4.75V54.44H30.94V27.27h7.48v4.34a9.32,9.32,0,0,1,9-4.29c8,.77,8.17,9.76,8.17,9.76Z"/></g><g id="Capa_79" data-name="Capa 79"><rect id="Rectángulo_2928" data-name="Rectángulo 2928" class="cls-1" x="0.14" y="-0.14" width="72" height="72"/></g></g></svg>