<svg id="Capa_1" data-name="Capa 1" xmlns="http://www.w3.org/2000/svg" viewBox="0 0 72 72"><defs><style>.cls-1{fill:none;}</style></defs><path d="M19.41,7.42A33,33,0,1,0,64.49,19.5,33,33,0,0,0,19.41,7.42ZM57.7,20.05l-9,5.21a43.44,43.44,0,0,0-16.76-16A27,27,0,0,1,57.7,20.05ZM49.46,59.36l-.05,0-.1.06c-8.11-1.79-15.91-7.32-21-15.68L46.41,33.31C51.09,41.91,52,51.44,49.46,59.36ZM25.38,38.71c-4.64-8.63-5.49-18.15-3-26.09h0c8.13,1.8,15.94,7.3,21.09,15.64ZM14.75,19.23a43.53,43.53,0,0,0,5.43,22.48l-9,5.18A27,27,0,0,1,14.75,19.23ZM14.12,52l9-5.19a43.5,43.5,0,0,0,16.77,16A27,27,0,0,1,14.12,52ZM57,52.84A43.43,43.43,0,0,0,51.6,30.31l9-5.2A27,27,0,0,1,57,52.84Z"/><rect class="cls-1" x="-0.09" width="72" height="72"/></svg>