<svg id="Capa_1" data-name="Capa 1" xmlns="http://www.w3.org/2000/svg" viewBox="0 0 72 72"><defs><style>.cls-1{fill:none;}</style></defs><g id="Grupo_3831" data-name="Grupo 3831"><g id="Grupo_3164" data-name="Grupo 3164"><g id="Capa_93-2" data-name="Capa 93-2"><path id="Trazado_952" data-name="Trazado 952" d="M69.06,25.38a14.77,14.77,0,0,0-3.6-10.22,10.9,10.9,0,0,0-5.87-2.5c-5.91-.8-23.17-.55-23.17-.55s-17.26-.24-23.18.56a10.9,10.9,0,0,0-5.87,2.5,14.77,14.77,0,0,0-3.6,10.22c-.22,2.73-.22,19.73,0,22.46a14.76,14.76,0,0,0,3.6,10.21,10.83,10.83,0,0,0,5.87,2.5c5.92.8,23.18.56,23.18.56s17.26.24,23.18-.56a10.86,10.86,0,0,0,5.88-2.5,14.86,14.86,0,0,0,3.6-10.21C69.28,45.11,69.28,28.11,69.06,25.38ZM29.76,47.14v-21l17.18,10.5Z"/></g><g id="Capa_79-5" data-name="Capa 79-5"><rect id="Rectángulo_2932" data-name="Rectángulo 2932" class="cls-1" x="0.43" width="72" height="72"/></g></g></g></svg>