<svg id="Capa_1" data-name="Capa 1" xmlns="http://www.w3.org/2000/svg" viewBox="0 0 662.38 155.39"><defs><style>.cls-1{fill:#fff;}</style></defs><path class="cls-1" d="M670.65,105.79l-10.09-5.16a130.51,130.51,0,0,0-49.21-11.71c-1.1,0-2.21-.07-3.31-.09-.7,0-1.38,0-2.08,0h-.67c-.7,0-1.38,0-2.08,0-1.1,0-2.21,0-3.31.09a130.51,130.51,0,0,0-49.21,11.71l-10.09,5.16c-.36.2-.72.4-1.07.64L565.4,132.3c2.62-1.24,5-2.38,5.45-2.54a96.3,96.3,0,0,1,14.76-4.29c.88-.19,1.76-.36,2.64-.52s1.82-.31,2.74-.44,1.6-.23,2.41-.32,1.44-.18,2.16-.25c3.31-.32,6.67-.48,10.06-.49s6.76.17,10.07.49c.72.07,1.44.16,2.15.25s1.62.2,2.43.32,1.82.28,2.72.44,1.78.34,2.65.52a96,96,0,0,1,14.76,4.29c.42.16,2.83,1.3,5.45,2.54l25.87-25.87C671.37,106.19,671,106,670.65,105.79Z" transform="translate(-67.24 -88.78)"/><path class="cls-1" d="M723.43,161.3c-1-1.92-2-3.84-3-5.7a131.36,131.36,0,0,0-38.9-42.92l-25,25a96.46,96.46,0,0,1,17.85,14.05c.76.75,1.49,1.51,2.22,2.29.48.52.94,1,1.4,1.57a83.27,83.27,0,0,1,14.1,22h37.57A86.25,86.25,0,0,0,723.43,161.3Z" transform="translate(-67.24 -88.78)"/><path class="cls-1" d="M512.42,127.24a131.35,131.35,0,0,0-21.55,28.36c-1.08,1.86-2.08,3.78-3.06,5.7a84.15,84.15,0,0,0-6.15,16.29H519.2a82.53,82.53,0,0,1,14.1-22c.46-.54.92-1,1.4-1.57.73-.78,1.46-1.54,2.25-2.29a96.26,96.26,0,0,1,17.82-14.05l-25-25A131.74,131.74,0,0,0,512.42,127.24Z" transform="translate(-67.24 -88.78)"/><path class="cls-1" d="M605.62,136a15.61,15.61,0,1,0,15.61,15.6A15.6,15.6,0,0,0,605.62,136Z" transform="translate(-67.24 -88.78)"/><polygon class="cls-1" points="538.39 155.39 552.59 88.8 524.18 88.8 538.39 155.39"/><path class="cls-1" d="M73.74,151.93h0a6.42,6.42,0,0,1-6.49-6.34h0a6.42,6.42,0,0,1,6.49-6.34h0a6.42,6.42,0,0,1,6.49,6.34h0A6.42,6.42,0,0,1,73.74,151.93Z" transform="translate(-67.24 -88.78)"/><path class="cls-1" d="M67.41,206.86h0V157.93H80.06v36.59A12.49,12.49,0,0,1,67.41,206.86Z" transform="translate(-67.24 -88.78)"/><path class="cls-1" d="M154.57,173.13a35.28,35.28,0,0,1-2.43,13.14A33.4,33.4,0,0,1,145.39,197,31.4,31.4,0,0,1,135,204.27a32,32,0,0,1-13.12,2.66H93V139.32h28.93A31.57,31.57,0,0,1,135,142a32.3,32.3,0,0,1,10.35,7.27A32.87,32.87,0,0,1,152.14,160,35.41,35.41,0,0,1,154.57,173.13Zm-13.6-.34a24.3,24.3,0,0,0-1.47-9,21.78,21.78,0,0,0-4.51-7.39,20.64,20.64,0,0,0-7.23-5,24.57,24.57,0,0,0-9.66-1.82H106.41v46.15H118.1a24.77,24.77,0,0,0,9.49-1.73,20.57,20.57,0,0,0,7.14-4.82,21.53,21.53,0,0,0,4.55-7.27A26.79,26.79,0,0,0,141,172.79Z" transform="translate(-67.24 -88.78)"/><path class="cls-1" d="M229.9,173.17a32.94,32.94,0,0,1-2.63,13.13,33.31,33.31,0,0,1-7.19,10.7,34.23,34.23,0,0,1-10.61,7.18,33,33,0,0,1-25.81,0A34.18,34.18,0,0,1,173,197a33.46,33.46,0,0,1-7.19-10.66,34.39,34.39,0,0,1,0-26.38,33.3,33.3,0,0,1,17.84-17.84,33.45,33.45,0,0,1,25.81,0,33.56,33.56,0,0,1,10.61,7.18,34,34,0,0,1,7.19,10.7A32.88,32.88,0,0,1,229.9,173.17Zm-12.19,0a21.29,21.29,0,0,0-1.66-8.39,21.78,21.78,0,0,0-11.27-11.59,20.36,20.36,0,0,0-16.47,0A21.78,21.78,0,0,0,177,164.78a21.93,21.93,0,0,0,0,16.74,21.67,21.67,0,0,0,11.27,11.63,20.25,20.25,0,0,0,16.47,0,21.67,21.67,0,0,0,11.27-11.63A21.38,21.38,0,0,0,217.71,173.17Z" transform="translate(-67.24 -88.78)"/><path class="cls-1" d="M293.58,139.2,271.7,195.59A17.82,17.82,0,0,1,255,206.81h0L228.19,139.2h14.89l18,47.5,17.76-47.5Z" transform="translate(-67.24 -88.78)"/><path class="cls-1" d="M468,192.59l-21.12-53.22-12.28-.13-26.85,67.61h14.9l7.09-18.68h21.7l7,18.68A10.39,10.39,0,0,0,468,192.59Zm-34.26-15,6.93-18.25,6.82,18.25Z" transform="translate(-67.24 -88.78)"/><path class="cls-1" d="M348,195.41h-32.7V178.29H347.9V167.72H315.33V150.1H347.9V139.28H302.17v67.53l34.69,0A11.14,11.14,0,0,0,348,195.41Z" transform="translate(-67.24 -88.78)"/><path class="cls-1" d="M391.28,206.78l-34.8,0V139.28h13.69v54.85h33.17C403.34,201.14,398.45,206.78,391.28,206.78Z" transform="translate(-67.24 -88.78)"/></svg>